<svg height="80" viewBox="0 0 58 58" width="80" xmlns="http://www.w3.org/2000/svg"><g id="Page-1" fill="none" fill-rule="evenodd"><g id="070---Magic-Septre" fill-rule="nonzero"><path id="Shape" d="m57.26 9.23c-.1552177.15590385-.3607746.2515941-.58.27l-6.99.86-2.05-2.05.86-6.99c.0184059-.21922542.1140961-.42478225.27-.58l5.23 3.26z" fill="#2980b1"/><path id="Shape" d="m51.6 7.4c-.4043959-.00008635-.7689341-.2437275-.923678-.61734544s-.0692299-.80366031.216678-1.08965456l1.414-1.414c.3923789-.37897221 1.0160848-.37355237 1.4018186.01218142.3857338.3857338.3911536 1.00943969.0121814 1.40181858l-1.414 1.414c-.1874927.18754937-.4418052.29294336-.707.293z" fill="#285680"/><path id="Shape" d="m50.09 17.28c-.3312192.6874663-.7776654 1.3131674-1.32 1.85-2.69 2.69-7.85 3.6-10.21.31s-2.38-7.52.31-10.21c.5368326-.54233459 1.1625337-.98878075 1.85-1.32 2.6885433-1.33279403 5.9277318-.80145782 8.0495948 1.32040519s2.6531992 5.36105151 1.3204052 8.04959481z" fill="#2f9fc3"/><path id="Shape" d="m57.99 4.87-.46 3.79c-.0250206.21447829-.1198964.41477156-.27.57l-8.49-8.49c.1552284-.15010363.3555217-.24497939.57-.27l3.79-.46c.3204363-.03662716.6402449.07365169.87.3l3.69 3.69c.2263483.22975507.3366272.54956373.3.87z" fill="#3b8eca"/><path id="Shape" d="m50.09 17.28c-2.6883119 1.3214021-5.9194822.7857836-8.0376329-1.3323671s-2.6537692-5.349321-1.3323671-8.0376329c2.6885433-1.33279403 5.9277318-.80145782 8.0495948 1.32040519s2.6531992 5.36105151 1.3204052 8.04959481z" fill="#67b0c3"/><path id="Shape" d="m32.761 21.029-32.169 32.171c-.37852721.3735502-.591605.8831893-.591605 1.415s.21307779 1.0414498.591605 1.415l1.38 1.38c.37355018.3785272.88318933.591605 1.415.591605s1.04144982-.2130778 1.415-.591605l32.169-32.171z" fill="#e7bb19"/><path id="Rectangle-path" d="m6.231 46.151h5.303v5.954h-5.303z" fill="#e9931f" transform="matrix(.707 -.707 .707 .707 -32.137 20.67)"/><path id="Rectangle-path" d="m30.314 22.043h5.332v5.954h-5.332z" fill="#e9931f" transform="matrix(.707 -.707 .707 .707 -8.032 30.649)"/><path id="Shape" d="m45.942 13.058c-.2651948-.0000566-.5195073-.1054506-.707-.293-.7809997-.7807639-2.0470003-.7807639-2.828 0-.3923789.3789722-1.0160848.3735524-1.4018186-.0121814s-.3911536-1.0094397-.0121814-1.4018186c1.5619994-1.56152775 4.0940006-1.56152775 5.656 0 .2859079.2859943.3714219.7160366.216678 1.0896546-.1547439.3736179-.5192821.6172591-.923678.6173454z" fill="#96c0ca"/><path id="Shape" d="m40.285 17.715c2.2083118 2.2107209 5.252951 3.37741 8.3731125 3.2085309s6.0210887-1.6573728 7.9778875-4.0935309c.2316897-.2764373.6271819-.3491209.9420199-.1731245s.4600923.5509607.3459801.8931245c-.8452505 2.7761333-2.5306663 5.2218029-4.824 7l-.158.122c-5.5937065 4.1281005-13.3585383 3.576892-18.313-1.3-4.876892-4.9544617-5.4281005-12.7192935-1.3-18.313.041-.053.081-.106.122-.158 1.7781971-2.2933337 4.2238667-3.97874948 7-4.824.3421638-.11411219.7171281.03114211.8931245.34598009.1759964.31483797.1033128.71033024-.1731245.94201991-.5884994.47484457-1.1275651 1.0078797-1.609 1.591-3.5042894 4.40163548-3.1947249 10.7209472.723 14.759z" fill="#dd4c3c"/><g fill="#b73a2b"><path id="Shape" d="m41.17 1.36c-.5853903.48195629-1.1244058 1.01762383-1.61 1.6-1.0820051 1.31039463-1.8269947 2.86560329-2.17 4.53l-4.06-2.43c.0377626-.05762778.0813228-.11124032.13-.16 1.7728918-2.29360342 4.215975-3.97824733 6.99-4.82.339905-.11291282.7121497.03097197.8877459.34314295.1755961.31217098.1052579.70500867-.1677459.93685705z"/><path id="Shape" d="m40.29 17.71-5.66 5.66c-2.4416117-2.4712925-3.8809285-5.7596326-4.04-9.23l7.23-.31c.5286645 1.4589026 1.3719452 2.7835702 2.47 3.88z"/><path id="Shape" d="m52.94 24.67c-2.607901 1.9573914-5.8246735 2.9280915-9.08 2.74l.31-7.23c2.030057.740424 4.2285578.8895336 6.34.43z"/></g></g></g></svg>