<?xml version="1.0" encoding="iso-8859-1"?>
<!-- Generator: Adobe Illustrator 19.0.0, SVG Export Plug-In . SVG Version: 6.00 Build 0)  -->
<svg version="1.1" id="Capa_1" xmlns="http://www.w3.org/2000/svg" xmlns:xlink="http://www.w3.org/1999/xlink" x="0px" y="0px"
	 viewBox="0 0 512 512" style="enable-background:new 0 0 512 512;" xml:space="preserve">
<path style="fill:#2F2E3C;" d="M164.333,391.859c-4.124,6.264-8.446,12.381-12.958,18.341c-3.2,4.207-6.484,8.341-9.884,12.381
	c-4.281,5.131-8.73,10.125-13.325,14.983c-3.609,3.819-7.303,7.544-11.091,11.174c-4.816,4.638-9.779,9.128-14.878,13.462
	c-4.019,3.421-8.121,6.736-12.297,9.957c-6.621,5.11-13.441,9.968-20.45,14.574l-44.184-44.184
	c4.606-7.009,9.464-13.829,14.574-20.45c3.221-4.176,6.547-8.279,9.968-12.287c4.333-5.099,8.814-10.062,13.462-14.878
	c3.63-3.788,7.355-7.481,11.164-11.091c4.858-4.596,9.852-9.034,14.983-13.336c4.05-3.389,8.174-6.673,12.392-9.873
	c5.949-4.522,12.066-8.845,18.33-12.958C134.87,362.406,149.601,377.127,164.333,391.859z"/>
<path style="fill:#F9A000;" d="M50.993,507.897l-46.89-46.891c-5.471-5.471-5.471-14.34,0-19.811l0,0
	c5.471-5.471,14.34-5.471,19.811,0l46.89,46.89c5.471,5.471,5.471,14.34,0,19.811l0,0C65.333,513.367,56.464,513.367,50.993,507.897
	z"/>
<path style="fill:#EA8100;" d="M21.941,459.034c5.471-5.471,14.34-5.471,19.811,0l-17.837-17.837c-5.471-5.471-14.34-5.471-19.811,0
	c-5.471,5.47-5.471,14.34,0,19.81l17.837,17.837C16.47,473.373,16.47,464.504,21.941,459.034z"/>
<polygon style="fill:#B1B4BB;" points="188.343,362.592 469.023,107.539 511.999,0 404.46,42.977 149.408,323.656 150.032,359.772 
	"/>
<polyline style="fill:#C6CDD3;" points="188.343,362.592 469.023,107.539 511.999,0 436.741,75.258 155.556,356.444 "/>
<path style="fill:#F9A000;" d="M195.675,369.919l-53.592-53.592c-14.716-14.716-38.574-14.716-53.29,0l0,0l106.882,106.882l0,0
	C210.39,408.493,210.39,384.634,195.675,369.919z"/>
<path style="fill:#EA8100;" d="M123.167,350.7L123.167,350.7c14.716-14.716,38.573-14.716,53.289,0l-34.373-34.373
	c-14.716-14.716-38.574-14.716-53.29,0l0,0L123.167,350.7z"/>
<path d="M151.375,410.2c-3.2,4.207-6.484,8.341-9.884,12.381l-52.074-52.074c4.05-3.389,8.174-6.673,12.392-9.873L151.375,410.2z"/>
<path d="M128.165,437.565c-3.609,3.819-7.303,7.544-11.091,11.174L63.27,394.934c3.63-3.788,7.355-7.481,11.164-11.091
	L128.165,437.565z"/>
<path d="M102.197,462.201c-4.019,3.421-8.121,6.736-12.297,9.957L39.84,422.099c3.221-4.176,6.547-8.279,9.968-12.287
	L102.197,462.201z"/>
<g>
</g>
<g>
</g>
<g>
</g>
<g>
</g>
<g>
</g>
<g>
</g>
<g>
</g>
<g>
</g>
<g>
</g>
<g>
</g>
<g>
</g>
<g>
</g>
<g>
</g>
<g>
</g>
<g>
</g>
</svg>
