<svg id="Capa_1" enable-background="new 0 0 512 512" height="80" viewBox="0 0 512 512" width="80" xmlns="http://www.w3.org/2000/svg"><path d="m153.067 86.337h-61.76v-82.218c.001-2.275 1.845-4.119 4.12-4.119h53.522c2.275 0 4.119 1.844 4.119 4.119v82.218z" fill="#deb281"/><path d="m148.95 0h-30.88c2.274 0 4.117 1.845 4.117 4.121v82.216h30.88v-82.216c0-2.276-1.843-4.121-4.117-4.121z" fill="#d1a36f"/><path d="m286.88 86.337h-61.76v-82.218c0-2.275 1.844-4.119 4.119-4.119h53.521c2.275 0 4.119 1.844 4.119 4.119v82.218z" fill="#deb281"/><path d="m282.762 0h-30.88c2.275 0 4.118 1.845 4.118 4.121v82.216h30.88v-82.216c0-2.276-1.844-4.121-4.118-4.121z" fill="#d1a36f"/><path d="m420.692 86.337h-61.76v-82.218c0-2.275 1.844-4.119 4.119-4.119h53.521c2.275 0 4.119 1.844 4.119 4.119v82.218z" fill="#deb281"/><path d="m416.575 0h-30.88c2.274 0 4.117 1.845 4.117 4.121v82.216h30.88v-82.216c0-2.276-1.843-4.121-4.117-4.121z" fill="#d1a36f"/><path d="m111.894 188.5h288.211v323.5h-288.211z" fill="#debf9b"/><path d="m369.226 188.5h30.88v323.5h-30.88z" fill="#deb281"/><path d="m420.693 61.81v83.45l-4.636 14.92h-320.114l-4.636-14.92v-83.45z" fill="#debf9b"/><path d="m389.812 61.811h30.88v83.445h-30.88z" fill="#deb281"/><path d="m186.058 435.5v-80c0-38.598 31.376-70 69.942-70s69.942 31.402 69.942 70v80z" fill="#d1a36f"/><path d="m295.967 405.5h-79.934v-50.033c0-22.073 17.894-39.967 39.967-39.967 22.073 0 39.967 17.894 39.967 39.967z" fill="#46758c"/><g fill="#c9975f"><path d="m226.634 405.5-29.985 30h-10.591v-10.6l29.975-30.01v8.61c0 1.105.895 2 1.998 2z"/><path d="m325.942 424.9v10.6h-10.601l-29.947-29.972c.008-.02.003-.008.012-.028h8.563c1.104 0 1.998-.895 1.998-2v-8.57c.02-.008.008-.003.028-.012z"/><path d="m249.605 405.5h14.988v30h-14.988z"/><path d="m263.494 285.9v30.31c-2.428-.47-4.936-.71-7.494-.71s-5.066.24-7.494.71v-30.31c2.458-.26 4.966-.4 7.494-.4s5.036.14 7.494.4z"/><path d="m216.763 347.9c-.48 2.46-.729 5-.729 7.6v7.82l-29.965-8.81c.07-5.19.709-10.24 1.858-15.09z"/><path d="m295.967 363.32v-7.82c0-2.6-.25-5.14-.729-7.6l28.836-8.48c1.149 4.85 1.788 9.9 1.858 15.09z"/><path d="m360.913 424.923h-209.826c-4.139 0-7.494 3.358-7.494 7.5s3.355 7.5 7.494 7.5h209.826c4.139 0 7.494-3.358 7.494-7.5s-3.355-7.5-7.494-7.5z"/><path d="m263.202 120.016h-14.404c-4.55 0-8.238-3.688-8.238-8.238v-16.49c0-4.55 3.688-8.238 8.238-8.238h14.404c4.55 0 8.238 3.688 8.238 8.238v16.49c0 4.55-3.688 8.238-8.238 8.238z"/><path d="m103.142 120.016h-14.404c-4.55 0-8.238-3.688-8.238-8.238v-16.49c0-4.55 3.688-8.238 8.238-8.238h14.404c4.55 0 8.238 3.688 8.238 8.238v16.49c0 4.55-3.689 8.238-8.238 8.238z"/><path d="m423.262 120.016h-14.404c-4.55 0-8.238-3.688-8.238-8.238v-16.49c0-4.55 3.688-8.238 8.238-8.238h14.404c4.55 0 8.238 3.688 8.238 8.238v16.49c0 4.55-3.688 8.238-8.238 8.238z"/><path d="m343.232 120.016h-14.404c-4.55 0-8.238-3.688-8.238-8.238v-16.49c0-4.55 3.688-8.238 8.238-8.238h14.404c4.55 0 8.238 3.688 8.238 8.238v16.49c0 4.55-3.688 8.238-8.238 8.238z"/><path d="m183.172 120.016h-14.404c-4.55 0-8.238-3.688-8.238-8.238v-16.49c0-4.55 3.688-8.238 8.238-8.238h14.404c4.55 0 8.238 3.688 8.238 8.238v16.49c0 4.55-3.688 8.238-8.238 8.238z"/></g><path d="m400.106 221.489h-288.212l-20.586-76.233h329.384z" fill="#deb281"/><path d="m389.812 145.256-20.586 76.233h30.88l20.586-76.233z" fill="#d1a36f"/></svg>